<?xml version="1.0" encoding="utf-8"?>
<!-- Generator: Adobe Illustrator 15.1.0, SVG Export Plug-In . SVG Version: 6.00 Build 0)  -->
<!DOCTYPE svg PUBLIC "-//W3C//DTD SVG 1.1//EN" "http://www.w3.org/Graphics/SVG/1.1/DTD/svg11.dtd">
<svg version="1.1" id="Capa_1" xmlns="http://www.w3.org/2000/svg" xmlns:xlink="http://www.w3.org/1999/xlink" x="0px" y="0px"
	 width="656.525px" height="167.772px" viewBox="101.601 162.581 656.525 167.772"
	 enable-background="new 101.601 162.581 656.525 167.772" xml:space="preserve">
<g id="Fondo">
</g>
<g id="Gu_x2019_as">
</g>
<g id="Primer_plano">
	<g>
		<path fill="#FFFFFF" d="M274.709,195.9c21.509,40.871,9.082,92.342-30.088,118.763c-41.997,28.327-99.002,17.245-127.33-24.751
			c-28.327-41.997-17.245-99.004,24.751-127.331l14.456,21.104c-30.285,20.427-38.427,61.638-17.999,91.922
			c20.426,30.286,61.535,38.275,91.818,17.849c27.438-18.507,36.576-53.992,22.86-83.021L274.709,195.9z"/>
		<path fill="#FFFFFF" d="M174.067,255.858l43.208-29.145c1.583-1.067,1.144-1.718-0.875-4.713
			c-8.747-12.967-26.349-16.389-39.316-7.642c-12.967,8.746-16.388,26.348-7.643,39.316
			C171.731,257.067,171.75,257.421,174.067,255.858z M154.102,277.245c-2.111-2.217-4.072-4.646-5.85-7.283
			c-16.308-24.178-12.324-59.319,14.038-77.1c26.362-17.781,59.8-9.924,77.582,16.438c2.315,3.433,2.948,5.045,4.004,7.283
			L154.102,277.245z"/>
		<path fill="#FFFFFF" d="M179.259,270.908c8.087,11.373,28.234,16.99,46.423,4.722c18.008-12.146,20.946-29.274,18.521-48.45
			l2.412-1.59c5.024,21.204-2.186,44.889-22.306,58.461c-20.207,13.629-44.573,12.195-62.855-1.089L179.259,270.908z"/>
	</g>
	<g>
		<path fill="#FFFFFF" d="M352.187,263.029c-5.422,3.58-10.332,6.138-16.981,6.138c-6.241,0-9.106-3.069-10.128-5.217l35.601-22.097
			c-4.604-9.616-14.015-16.062-24.757-16.062c-15.345,0-28.849,11.97-28.849,27.622c0,15.652,13.504,27.622,28.849,27.622
			c7.674,0,15.447-2.455,21.791-6.854L352.187,263.029z M319.962,254.743c-0.205-1.229-0.205-2.354-0.205-3.478
			c0.715-7.98,7.264-14.63,15.448-14.63c3.478,0,6.647,0.92,9.103,3.376L319.962,254.743z"/>
		<path fill="#FFFFFF" d="M371.777,280.215l12.991-0.818v-29.564c0-6.547,3.786-12.788,11.97-12.788
			c5.83,0,8.388,4.604,8.388,10.127v33.043l12.993-0.818v-35.703c0-11.048-7.162-17.903-17.903-17.903
			c-7.264,0-11.561,1.638-15.959,7.571h-0.206V226.2l-12.274,1.229L371.777,280.215L371.777,280.215z"/>
		<path fill="#FFFFFF" d="M429.935,272.646c4.81,5.626,12.276,8.389,19.54,8.389c10.537,0,21.278-5.32,21.278-17.186
			c0-19.131-25.677-13.3-25.677-21.792c0-3.99,2.455-5.421,6.24-5.421c3.987,0,7.263,2.455,9.819,5.217l8.49-7.569
			c-4.91-5.525-11.866-8.493-19.232-8.493c-9.615,0-19.025,5.32-19.025,15.959c0,19.847,25.676,13.811,25.676,23.12
			c0,2.66-3.068,5.319-7.263,5.319c-5.014,0-8.39-1.942-11.765-5.524L429.935,272.646z"/>
		<path fill="#FFFFFF" d="M525.331,263.029c-5.423,3.58-10.334,6.138-16.981,6.138c-6.24,0-9.105-3.069-10.128-5.217l35.601-22.097
			c-4.604-9.616-14.016-16.062-24.757-16.062c-15.345,0-28.85,11.97-28.85,27.622c0,15.652,13.505,27.622,28.85,27.622
			c7.674,0,15.446-2.455,21.791-6.854L525.331,263.029z M493.106,254.743c-0.204-1.229-0.204-2.354-0.204-3.478
			c0.714-7.98,7.263-14.63,15.446-14.63c3.479,0,6.647,0.92,9.104,3.376L493.106,254.743z"/>
		<path fill="#FFFFFF" d="M580.113,205.433c-0.513,2.456-2.252,4.194-4.81,4.194c-1.843,0-4.092-0.919-6.548-1.943
			c-2.454-0.921-5.014-1.84-7.673-1.84c-6.854,0-11.048,6.342-11.764,12.583h6.547c0.409-2.251,2.046-4.298,4.502-4.298
			c1.943,0,4.5,0.921,7.06,1.74c2.657,0.92,5.522,1.841,7.979,1.841c7.262,0,10.023-6.037,11.353-12.277H580.113z M544.921,280.215
			l12.992-0.818v-29.564c0-6.547,3.785-12.788,11.97-12.788c5.83,0,8.39,4.604,8.39,10.127v33.043l12.991-0.818v-35.703
			c0-11.048-7.163-17.903-17.901-17.903c-7.264,0-11.562,1.638-15.96,7.571h-0.203V226.2l-12.277,1.229L544.921,280.215
			L544.921,280.215z"/>
		<path fill="#FFFFFF" d="M609.421,239.704c4.706-1.841,9.617-3.068,14.732-3.068c6.035,0,11.149,1.33,11.149,8.389
			c0,1.33-0.205,2.353-0.307,3.478c-5.013-2.557-8.696-3.478-14.322-3.478c-9.719,0-17.596,8.286-17.596,17.698
			c0,11.867,8.594,18.312,19.642,18.312c4.808,0,9.411-1.842,12.992-4.911v4.5l11.867-1.227v-38.976
			c0-10.537-10.23-14.63-19.54-14.63c-5.012,0-10.127,0.513-15.037,1.433L609.421,239.704z M616.071,262.722
			c0-4.603,4.91-7.467,9.515-7.467c4.604,0,9.513,2.864,9.513,7.467c0,4.705-4.909,7.468-9.513,7.468
			C620.981,270.19,616.071,267.427,616.071,262.722z"/>
		<polygon fill="#FFFFFF" points="674.861,279.397 674.861,207.583 661.869,209.218 661.869,280.215 		"/>
		<path fill="#FFFFFF" d="M689.229,280.215l12.993-0.818V226.2l-12.993,1.229V280.215z M695.982,204.819l-8.799,8.697l8.799,8.694
			l8.799-8.694L695.982,204.819z"/>
		<path fill="#FFFFFF" d="M719.968,239.704c4.707-1.841,9.618-3.068,14.734-3.068c6.033,0,11.147,1.33,11.147,8.389
			c0,1.33-0.203,2.353-0.307,3.478c-5.012-2.557-8.695-3.478-14.323-3.478c-9.717,0-17.595,8.286-17.595,17.698
			c0,11.867,8.593,18.312,19.642,18.312c4.81,0,9.412-1.842,12.992-4.911v4.5l11.867-1.227v-38.976
			c0-10.537-10.229-14.63-19.539-14.63c-5.012,0-10.127,0.513-15.038,1.433L719.968,239.704z M726.618,262.722
			c0-4.603,4.911-7.467,9.515-7.467s9.515,2.864,9.515,7.467c0,4.705-4.911,7.468-9.515,7.468S726.618,267.427,726.618,262.722z"/>
	</g>
</g>
</svg>
